<?xml version="1.0" encoding="UTF-8" standalone="no"?>
<!-- Created with Inkscape (http://www.inkscape.org/) -->

<svg
   xmlns:dc="http://purl.org/dc/elements/1.1/"
   xmlns:cc="http://creativecommons.org/ns#"
   xmlns:rdf="http://www.w3.org/1999/02/22-rdf-syntax-ns#"
   xmlns:svg="http://www.w3.org/2000/svg"
   xmlns="http://www.w3.org/2000/svg"
   xmlns:sodipodi="http://sodipodi.sourceforge.net/DTD/sodipodi-0.dtd"
   xmlns:inkscape="http://www.inkscape.org/namespaces/inkscape"
   width="744.09448819"
   height="1052.3622047"
   id="svg2"
   version="1.1"
   inkscape:version="0.48.2 r9819"
   sodipodi:docname="New document 1">
  <defs
     id="defs4" />
  <sodipodi:namedview
     id="base"
     pagecolor="#ffffff"
     bordercolor="#666666"
     borderopacity="1.0"
     inkscape:pageopacity="0.0"
     inkscape:pageshadow="2"
     inkscape:zoom="22.4"
     inkscape:cx="14.020006"
     inkscape:cy="452.4072"
     inkscape:document-units="px"
     inkscape:current-layer="layer1"
     showgrid="true"
     inkscape:window-width="1152"
     inkscape:window-height="760"
     inkscape:window-x="0"
     inkscape:window-y="0"
     inkscape:window-maximized="0">
    <inkscape:grid
       type="xygrid"
       id="grid2985" />
  </sodipodi:namedview>
  <metadata
     id="metadata7">
    <rdf:RDF>
      <cc:Work
         rdf:about="">
        <dc:format>image/svg+xml</dc:format>
        <dc:type
           rdf:resource="http://purl.org/dc/dcmitype/StillImage" />
        <dc:title></dc:title>
      </cc:Work>
    </rdf:RDF>
  </metadata>
  <g
     inkscape:label="Layer 1"
     inkscape:groupmode="layer"
     id="layer1">
    <rect
       style="fill:#ffaaaa;stroke:none"
       id="rect2987"
       width="16"
       height="16"
       x="0"
       y="587.36218" />
    <rect
       y="587.36218"
       x="17"
       height="16"
       width="16"
       id="rect2991"
       style="fill:#f2f2f2;stroke:none"
       inkscape:export-filename="/Users/jared/clone/ff/breadcrumb/pedigree-down.png"
       inkscape:export-xdpi="90"
       inkscape:export-ydpi="90" />
    <path
       sodipodi:nodetypes="ccccccccccccccccccccc"
       inkscape:connector-curvature="0"
       id="path2993"
       d="m 24,589.36218 2,0 0,5 6,0 0,7 -2,0 0,-5 -2,0 0,5 -2,0 -0.01786,-5 -1.910713,0 -0.07143,5 -2,0 0,-5 -2,0 0,5 -2,0 0,-7 6,0 z"
       style="fill:#000000;stroke:none" />
    <rect
       y="604.36218"
       x="0"
       height="16"
       width="16"
       id="rect2995"
       style="fill:#f2f2f2;stroke:none"
       inkscape:export-filename="/Users/jared/clone/ff/breadcrumb/rpedigree-up.png"
       inkscape:export-xdpi="90"
       inkscape:export-ydpi="90" />
    <path
       style="fill:#000000;stroke:none"
       d="m 1,607.36218 0,4 2,0 0,4 4,0 0,2 2,0 0,-2 4,0 0,-4 2,0 0,-4 -2,0 0,2 -2,0 0,-2 -2,0 0,4 2,0 0,2 -6,0 0,-2 2,0 0,-4 -2,0 0,2 -2,0 0,-2 -2,0 z"
       id="path2997"
       inkscape:connector-curvature="0" />
    <path
       sodipodi:nodetypes="ccccccccccccc"
       inkscape:connector-curvature="0"
       id="path2999"
       d="m 7,601.36218 2,0 0,-5 4,0 0,-7 -2,0 0,5 -6,0 0,-5 -2,0 0,7 4,0 z"
       style="fill:#000000;stroke:none" />
    <path
       style="fill:#000000;stroke:none"
       d="m 35,590.36218 2,0 0,-5 4,0 0,-7 -2,0 0,5 -6,0 0,-5 -2,0 0,7 4,0 z"
       id="path2989"
       inkscape:connector-curvature="0"
       sodipodi:nodetypes="ccccccccccccc" />
    <rect
       y="604.36218"
       x="17"
       height="16"
       width="16"
       id="rect3006"
       style="fill:#cccccc;stroke:none"
       inkscape:export-filename="/Users/jared/clone/ff/breadcrumb/pedigree-side.png"
       inkscape:export-xdpi="90"
       inkscape:export-ydpi="90" />
    <path
       style="fill:#000000;stroke:none;stroke-width:1px;stroke-linecap:butt;stroke-linejoin:miter;stroke-opacity:1"
       d="m 20,611.36218 10,0 0,2 -10,0 z"
       id="path3010"
       inkscape:connector-curvature="0" />
    <path
       sodipodi:type="arc"
       style="fill:#000000;stroke:none"
       id="path3012"
       sodipodi:cx="20.5"
       sodipodi:cy="611.86218"
       sodipodi:rx="1.5"
       sodipodi:ry="1.5"
       d="m 22,611.86218 a 1.5,1.5 0 1 1 -3,0 1.5,1.5 0 1 1 3,0 z"
       transform="matrix(1.3333333,0,0,1.3333333,-7.3333327,-203.45404)" />
    <path
       transform="matrix(1.3333333,0,0,1.3333333,2.6666674,-203.45404)"
       d="m 22,611.86218 a 1.5,1.5 0 1 1 -3,0 1.5,1.5 0 1 1 3,0 z"
       sodipodi:ry="1.5"
       sodipodi:rx="1.5"
       sodipodi:cy="611.86218"
       sodipodi:cx="20.5"
       id="path3014"
       style="fill:#000000;stroke:none"
       sodipodi:type="arc" />
  </g>
</svg>
